<?xml version="1.0" standalone="no"?>
<!DOCTYPE svg PUBLIC "-//W3C//DTD SVG 20010904//EN"
 "http://www.w3.org/TR/2001/REC-SVG-20010904/DTD/svg10.dtd">
<svg version="1.0" xmlns="http://www.w3.org/2000/svg"
 width="800.000000pt" height="800.000000pt" viewBox="0 0 800.000000 800.000000"
 preserveAspectRatio="xMidYMid meet">

<g transform="translate(0.000000,800.000000) scale(0.100000,-0.100000)"
fill="#000000" stroke="none">
<path d="M5543 7020 c-252 -21 -497 -107 -703 -245 -49 -32 -94 -55 -110 -55
-48 0 -124 -29 -164 -62 -49 -40 -86 -118 -86 -180 0 -26 -4 -49 -9 -52 -17
-11 -98 -141 -141 -226 -112 -223 -166 -464 -158 -708 l3 -113 -1209 -1412
c-664 -777 -1217 -1425 -1227 -1442 -32 -51 -41 -122 -25 -185 l15 -55 -199
-200 c-131 -132 -204 -213 -214 -239 -31 -74 -15 -197 31 -248 16 -17 5 -30
-198 -236 -122 -123 -223 -233 -232 -254 -27 -58 -31 -118 -13 -182 42 -143
205 -214 344 -149 21 9 131 109 253 230 l216 214 26 -21 c69 -54 184 -67 260
-29 25 12 120 98 232 210 l191 190 39 -17 c48 -20 145 -15 195 9 19 10 676
569 1460 1242 l1425 1224 115 1 c331 1 647 105 899 294 23 17 48 26 73 26 53
0 122 35 163 83 34 40 65 117 65 162 0 12 25 59 55 105 102 151 183 346 219
523 39 186 38 429 0 611 -39 188 -136 408 -251 569 -74 105 -235 266 -340 340
-289 205 -653 306 -1000 277z m387 -184 c120 -26 227 -65 343 -124 587 -297
866 -980 657 -1604 -29 -86 -91 -218 -135 -287 l-22 -36 -928 923 c-510 507
-926 924 -924 926 29 23 146 86 218 117 106 45 211 76 326 95 104 17 363 11
465 -10z m-203 -1248 c889 -888 963 -965 963 -996 0 -44 -38 -82 -82 -82 -30
0 -81 48 -588 553 -305 303 -739 735 -965 959 -408 406 -410 408 -410 449 0
51 30 79 83 79 35 0 76 -40 999 -962z m-232 -238 l920 -921 -25 -19 c-74 -59
-301 -152 -447 -185 -108 -25 -368 -30 -488 -11 -796 131 -1294 934 -1060
1711 35 118 150 345 173 345 4 0 421 -414 927 -920z m-1267 -237 c39 -149 133
-339 239 -483 73 -98 228 -250 330 -323 137 -98 328 -188 488 -229 l50 -14
-1368 -1174 c-752 -646 -1379 -1179 -1392 -1184 -18 -7 -33 -6 -53 5 -16 8
-169 157 -341 332 -364 373 -347 343 -253 455 217 259 2277 2662 2282 2662 3
0 11 -21 18 -47z m-2115 -3236 l191 -199 -185 -184 c-167 -166 -189 -184 -220
-184 -30 0 -53 19 -236 203 -185 184 -203 206 -203 237 0 31 18 51 187 222
l187 188 44 -43 c24 -23 130 -131 235 -240z m-573 -482 l55 -56 -211 -209
c-187 -187 -214 -210 -242 -210 -44 0 -82 38 -82 82 0 28 23 55 207 240 114
114 210 208 213 208 3 0 30 -25 60 -55z"/>
<path d="M3762 3978 c-184 -183 -340 -347 -348 -365 -8 -18 -11 -40 -8 -50 4
-10 68 -80 143 -155 129 -132 138 -138 176 -138 39 0 46 7 382 343 335 334
343 343 343 382 0 37 -7 47 -138 177 -130 130 -140 138 -177 138 -38 0 -48 -9
-373 -332z m435 80 c29 -29 53 -56 53 -60 0 -4 -39 -46 -86 -94 l-86 -86 -59
58 -59 58 87 88 c48 49 90 88 92 88 3 0 29 -23 58 -52z m-297 -303 l55 -55
-118 -118 -117 -117 -57 58 -58 57 115 115 c63 63 117 115 120 115 3 0 30 -25
60 -55z"/>
</g>
</svg>
